<svg width="237" height="21" viewBox="0 0 237 21" fill="none" xmlns="http://www.w3.org/2000/svg">
<path d="M2.02852 20.4824C1.59232 20.4824 1.21146 20.4596 0.885941 20.4141C0.553909 20.375 0.267451 20.3294 0.0265656 20.2773V17.2793C0.234899 17.3184 0.456253 17.3607 0.690628 17.4062C0.925003 17.4583 1.17891 17.4844 1.45235 17.4844C1.91459 17.4844 2.27266 17.39 2.52657 17.2012C2.78698 17.0124 2.96927 16.7292 3.07344 16.3516C3.17761 15.974 3.22969 15.502 3.22969 14.9355V1.72266H7.10664V14.6035C7.10664 16.0358 6.8918 17.1816 6.46211 18.041C6.03242 18.9004 5.43672 19.5221 4.675 19.9062C3.91328 20.2904 3.03112 20.4824 2.02852 20.4824ZM22.3617 8.8418C22.3617 9.94206 22.2283 10.9447 21.9613 11.8496C21.7009 12.748 21.2908 13.5228 20.7309 14.1738C20.171 14.8249 19.4516 15.3262 18.5727 15.6777C17.6938 16.0228 16.6423 16.1953 15.4184 16.1953C14.2204 16.1953 13.182 16.0228 12.3031 15.6777C11.4307 15.3262 10.7113 14.8281 10.1449 14.1836C9.57852 13.5326 9.1586 12.7546 8.88516 11.8496C8.61172 10.9447 8.475 9.93555 8.475 8.82227C8.475 7.33789 8.71914 6.04883 9.20743 4.95508C9.70222 3.85482 10.4639 3.00521 11.4926 2.40625C12.5212 1.80078 13.8363 1.49805 15.4379 1.49805C17.0655 1.49805 18.3871 1.80078 19.4027 2.40625C20.4249 3.01172 21.1736 3.86458 21.6488 4.96484C22.1241 6.0651 22.3617 7.35742 22.3617 8.8418ZM12.5375 8.8418C12.5375 9.70117 12.6352 10.4401 12.8305 11.0586C13.0258 11.6771 13.335 12.1523 13.7582 12.4844C14.1814 12.8164 14.7348 12.9824 15.4184 12.9824C16.128 12.9824 16.6911 12.8164 17.1078 12.4844C17.531 12.1523 17.8337 11.6771 18.016 11.0586C18.2048 10.4401 18.2992 9.70117 18.2992 8.8418C18.2992 7.55273 18.0844 6.53385 17.6547 5.78516C17.225 5.03646 16.4861 4.66211 15.4379 4.66211C14.7413 4.66211 14.1781 4.83138 13.7484 5.16992C13.3253 5.50846 13.016 5.99023 12.8207 6.61523C12.6319 7.24023 12.5375 7.98242 12.5375 8.8418ZM23.7398 16V1.72266H27.6168V16H23.7398ZM43.1063 16H38.0477L32.8328 5.94141H32.7449C32.7775 6.2474 32.8068 6.61523 32.8328 7.04492C32.8589 7.47461 32.8816 7.91406 32.9012 8.36328C32.9207 8.80599 32.9305 9.20638 32.9305 9.56445V16H29.5125V1.72266H34.5516L39.7469 11.6445H39.8055C39.7859 11.332 39.7664 10.9707 39.7469 10.5605C39.7273 10.1439 39.7078 9.72396 39.6883 9.30078C39.6753 8.8776 39.6688 8.50326 39.6688 8.17773V1.72266H43.1063V16ZM62.3469 8.8418C62.3469 9.94206 62.2134 10.9447 61.9465 11.8496C61.6861 12.748 61.2759 13.5228 60.716 14.1738C60.1561 14.8249 59.4367 15.3262 58.5578 15.6777C57.6789 16.0228 56.6275 16.1953 55.4035 16.1953C54.2056 16.1953 53.1672 16.0228 52.2883 15.6777C51.4159 15.3262 50.6965 14.8281 50.1301 14.1836C49.5637 13.5326 49.1438 12.7546 48.8703 11.8496C48.5969 10.9447 48.4602 9.93555 48.4602 8.82227C48.4602 7.33789 48.7043 6.04883 49.1926 4.95508C49.6874 3.85482 50.4491 3.00521 51.4777 2.40625C52.5064 1.80078 53.8215 1.49805 55.423 1.49805C57.0507 1.49805 58.3723 1.80078 59.3879 2.40625C60.41 3.01172 61.1587 3.86458 61.634 4.96484C62.1092 6.0651 62.3469 7.35742 62.3469 8.8418ZM52.5227 8.8418C52.5227 9.70117 52.6203 10.4401 52.8156 11.0586C53.0109 11.6771 53.3202 12.1523 53.7434 12.4844C54.1665 12.8164 54.7199 12.9824 55.4035 12.9824C56.1132 12.9824 56.6763 12.8164 57.093 12.4844C57.5161 12.1523 57.8189 11.6771 58.0012 11.0586C58.19 10.4401 58.2844 9.70117 58.2844 8.8418C58.2844 7.55273 58.0695 6.53385 57.6398 5.78516C57.2102 5.03646 56.4712 4.66211 55.423 4.66211C54.7264 4.66211 54.1633 4.83138 53.7336 5.16992C53.3104 5.50846 53.0012 5.99023 52.8059 6.61523C52.6171 7.24023 52.5227 7.98242 52.5227 8.8418ZM75.8637 1.72266V10.3164C75.8637 11.5143 75.6358 12.556 75.1801 13.4414C74.7244 14.3203 74.0408 15.0007 73.1293 15.4824C72.2178 15.9577 71.0753 16.1953 69.7016 16.1953C67.7354 16.1953 66.2348 15.6908 65.1996 14.6816C64.1645 13.6725 63.6469 12.2467 63.6469 10.4043V1.72266H67.5238V10.1016C67.5238 11.1107 67.7126 11.8431 68.0902 12.2988C68.4678 12.7546 69.0245 12.9824 69.7602 12.9824C70.2875 12.9824 70.7172 12.8848 71.0492 12.6895C71.3813 12.4876 71.6221 12.1719 71.7719 11.7422C71.9281 11.3125 72.0063 10.7591 72.0063 10.082V1.72266H75.8637ZM82.3395 1.72266C83.635 1.72266 84.7125 1.88216 85.5719 2.20117C86.4313 2.51367 87.0758 2.98242 87.5055 3.60742C87.9417 4.23242 88.1598 5.01042 88.1598 5.94141C88.1598 6.52083 88.0621 7.04818 87.8668 7.52344C87.6715 7.9987 87.3915 8.42513 87.027 8.80273C86.6689 9.17383 86.2392 9.49935 85.7379 9.7793L89.898 16H85.523L82.4957 10.8047H81.5191V16H77.6617V1.72266H82.3395ZM82.2809 4.64258H81.5191V7.9043H82.2418C82.8342 7.9043 83.3193 7.77409 83.6969 7.51367C84.0745 7.25326 84.2633 6.78776 84.2633 6.11719C84.2633 5.65495 84.107 5.29362 83.7945 5.0332C83.482 4.77279 82.9775 4.64258 82.2809 4.64258ZM107.586 16H102.527L97.3125 5.94141H97.2246C97.2572 6.2474 97.2865 6.61523 97.3125 7.04492C97.3385 7.47461 97.3613 7.91406 97.3809 8.36328C97.4004 8.80599 97.4102 9.20638 97.4102 9.56445V16H93.9922V1.72266H99.0312L104.227 11.6445H104.285C104.266 11.332 104.246 10.9707 104.227 10.5605C104.207 10.1439 104.188 9.72396 104.168 9.30078C104.155 8.8776 104.148 8.50326 104.148 8.17773V1.72266H107.586V16ZM117.948 16H109.472V1.72266H117.948V4.81836H113.329V7.06445H117.607V10.1602H113.329V12.8555H117.948V16ZM138.184 1.72266L134.668 16H130.108L128.741 9.7793C128.715 9.66211 128.672 9.46354 128.614 9.18359C128.562 8.90365 128.5 8.58464 128.428 8.22656C128.363 7.86849 128.301 7.51693 128.243 7.17188C128.191 6.82031 128.151 6.52409 128.125 6.2832C128.099 6.52409 128.057 6.82031 127.998 7.17188C127.94 7.51693 127.875 7.86849 127.803 8.22656C127.738 8.58464 127.673 8.90365 127.608 9.18359C127.549 9.46354 127.507 9.66211 127.481 9.7793L126.104 16H121.543L118.008 1.72266H121.729L123.282 8.88086C123.321 9.05664 123.373 9.30729 123.438 9.63281C123.51 9.95182 123.581 10.3034 123.653 10.6875C123.731 11.0651 123.802 11.4297 123.868 11.7812C123.933 12.1328 123.978 12.4258 124.004 12.6602C124.056 12.2565 124.125 11.7975 124.209 11.2832C124.301 10.7689 124.398 10.248 124.502 9.7207C124.613 9.18685 124.717 8.69206 124.815 8.23633C124.913 7.7806 124.997 7.40951 125.069 7.12305L126.329 1.72266H129.903L131.123 7.12305C131.189 7.40299 131.27 7.77409 131.368 8.23633C131.472 8.69206 131.576 9.18685 131.68 9.7207C131.791 10.2546 131.892 10.7819 131.983 11.3027C132.074 11.8171 132.142 12.2695 132.188 12.6602C132.227 12.3346 132.292 11.9245 132.383 11.4297C132.474 10.9284 132.566 10.4434 132.657 9.97461C132.754 9.49935 132.829 9.14128 132.881 8.90039L134.463 1.72266H138.184ZM148.166 11.6641C148.166 12.4388 147.97 13.1745 147.58 13.8711C147.189 14.5612 146.58 15.1211 145.754 15.5508C144.933 15.9805 143.872 16.1953 142.57 16.1953C141.919 16.1953 141.346 16.166 140.851 16.1074C140.363 16.0488 139.907 15.9544 139.484 15.8242C139.061 15.6875 138.621 15.5117 138.166 15.2969V11.8594C138.94 12.25 139.722 12.5495 140.509 12.7578C141.297 12.9596 142.01 13.0605 142.648 13.0605C143.032 13.0605 143.345 13.015 143.586 12.9238C143.833 12.8327 144.015 12.709 144.132 12.5527C144.25 12.39 144.308 12.2044 144.308 11.9961C144.308 11.7487 144.22 11.5404 144.045 11.3711C143.875 11.1953 143.602 11.013 143.224 10.8242C142.847 10.6354 142.349 10.401 141.73 10.1211C141.203 9.8737 140.724 9.61979 140.295 9.35938C139.871 9.09896 139.507 8.80273 139.201 8.4707C138.901 8.13216 138.67 7.73828 138.507 7.28906C138.345 6.83984 138.263 6.30924 138.263 5.69727C138.263 4.7793 138.488 4.01107 138.937 3.39258C139.393 2.76758 140.024 2.29883 140.832 1.98633C141.645 1.67383 142.583 1.51758 143.644 1.51758C144.575 1.51758 145.412 1.62174 146.154 1.83008C146.903 2.03841 147.573 2.27604 148.166 2.54297L146.984 5.52148C146.372 5.24154 145.77 5.02018 145.177 4.85742C144.585 4.68815 144.035 4.60352 143.527 4.60352C143.195 4.60352 142.921 4.64583 142.707 4.73047C142.498 4.80859 142.342 4.91602 142.238 5.05273C142.14 5.18945 142.091 5.3457 142.091 5.52148C142.091 5.74284 142.176 5.94141 142.345 6.11719C142.521 6.29297 142.811 6.48503 143.214 6.69336C143.625 6.89518 144.181 7.15885 144.884 7.48438C145.581 7.79688 146.173 8.13542 146.662 8.5C147.15 8.85807 147.521 9.29102 147.775 9.79883C148.035 10.3001 148.166 10.9219 148.166 11.6641ZM149.173 16V1.72266H153.03V12.8848H158.528V16H149.173ZM168.09 16H159.613V1.72266H168.09V4.81836H163.471V7.06445H167.748V10.1602H163.471V12.8555H168.09V16ZM175.689 16H171.831V4.87695H168.345V1.72266H179.165V4.87695H175.689V16ZM186.305 16H182.448V4.87695H178.961V1.72266H189.782V4.87695H186.305V16ZM199.099 16H190.623V1.72266H199.099V4.81836H194.48V7.06445H198.757V10.1602H194.48V12.8555H199.099V16ZM205.077 1.72266C206.373 1.72266 207.45 1.88216 208.309 2.20117C209.169 2.51367 209.813 2.98242 210.243 3.60742C210.679 4.23242 210.897 5.01042 210.897 5.94141C210.897 6.52083 210.8 7.04818 210.604 7.52344C210.409 7.9987 210.129 8.42513 209.764 8.80273C209.406 9.17383 208.977 9.49935 208.475 9.7793L212.636 16H208.261L205.233 10.8047H204.257V16H200.399V1.72266H205.077ZM205.018 4.64258H204.257V7.9043H204.979C205.572 7.9043 206.057 7.77409 206.434 7.51367C206.812 7.25326 207.001 6.78776 207.001 6.11719C207.001 5.65495 206.845 5.29362 206.532 5.0332C206.22 4.77279 205.715 4.64258 205.018 4.64258Z" fill="white"/>
<path fill-rule="evenodd" clip-rule="evenodd" d="M218.5 8.5C218.5 8.17801 218.619 7.86921 218.829 7.64153C219.04 7.41384 219.327 7.28593 219.625 7.28593H232.658L227.827 2.07516C227.616 1.84719 227.498 1.538 227.498 1.2156C227.498 0.893204 227.616 0.584011 227.827 0.356041C228.039 0.128072 228.325 0 228.624 0C228.923 0 229.209 0.128072 229.42 0.356041L236.17 7.64044C236.274 7.75322 236.357 7.88719 236.414 8.03469C236.471 8.18219 236.5 8.34031 236.5 8.5C236.5 8.65969 236.471 8.81781 236.414 8.96531C236.357 9.11281 236.274 9.24678 236.17 9.35956L229.42 16.644C229.209 16.8719 228.923 17 228.624 17C228.325 17 228.039 16.8719 227.827 16.644C227.616 16.416 227.498 16.1068 227.498 15.7844C227.498 15.462 227.616 15.1528 227.827 14.9248L232.658 9.71407H219.625C219.327 9.71407 219.04 9.58616 218.829 9.35848C218.619 9.13079 218.5 8.82199 218.5 8.5Z" fill="white"/>
</svg>
