<svg width="348" height="151" viewBox="0 0 348 151" fill="none" xmlns="http://www.w3.org/2000/svg">
<path d="M0.921875 68V67.9062L5.5625 62.3281V6.45312L0.921875 0.875V0.78125H52.6719V18.9219H40.4844L29.0469 2.89062H23.7969V33.4531H23.8906L39.8281 21.9219H40.4844V46.4844H39.8281L23.8906 34.7656H23.7969V62.3281L28.3906 67.9062V68H0.921875ZM63.5656 68V67.9062L68.2062 62.3281V6.45312L63.5656 0.875V0.78125H115.316V18.9219H103.128L91.6906 2.89062H86.4406V33.4531H86.5344L102.472 21.9219H103.128V46.4844H102.472L86.5344 34.7656H86.4406V65.8906H91.6906L103.128 49.8594H115.316V68H63.5656ZM128.647 68V67.9062L133.288 62.3281V6.45312L128.647 0.875V0.78125H156.116V0.875L151.522 6.45312V39.875L140.366 55.0625C139.991 55.5625 139.647 56.1094 139.334 56.7031C139.022 57.2656 138.694 57.9531 138.35 58.7656C138.038 59.5781 137.897 60.3594 137.928 61.1094C137.991 61.8281 138.194 62.5312 138.538 63.2188C138.881 63.9062 139.569 64.4844 140.6 64.9531C141.663 65.3906 143.022 65.6719 144.678 65.7969L156.303 49.8594H177.022L164.272 68H128.647ZM185.103 68V67.9062L189.744 62.3281V6.45312L185.103 0.875V0.78125H212.572V0.875L207.978 6.45312V62.3281L212.572 67.9062V68H185.103ZM214.934 68V67.9062L227.778 53.7031V11.5625L220.7 0.875L220.606 0.78125H243.809L270.528 38.2344V15.125L257.637 0.875V0.78125H285.387V0.875L272.544 15.125V68H267.247L229.794 14.6094V53.7031L242.684 67.9062V68H214.934ZM295.672 68V67.9062L300.312 62.3281V6.45312L295.672 0.875V0.78125H347.422V18.9219H335.234L323.797 2.89062H318.547V33.4531H318.641L334.578 21.9219H335.234V46.4844H334.578L318.641 34.7656H318.547V65.8906H323.797L335.234 49.8594H347.422V68H295.672ZM47.4875 150V149.906L52.1281 144.328V88.4531L47.4875 82.875V82.7812H99.2375V100.922H87.05L75.6125 84.8906H70.3625V115.453H70.4563L86.3938 103.922H87.05V128.484H86.3938L70.4563 116.766H70.3625V144.328L74.9563 149.906V150H47.4875ZM107.319 82.875V82.7812H134.741V82.875L130.147 88.4531V124.078C130.147 128.266 130.475 131.844 131.131 134.812C131.788 137.75 132.756 140.078 134.038 141.797C135.319 143.484 136.788 144.719 138.444 145.5C140.131 146.25 142.1 146.625 144.35 146.625C148.569 146.625 151.928 144.875 154.428 141.375C156.959 137.844 158.241 132.594 158.272 125.625L158.459 97.125L145.803 82.875V82.7812H173.131V82.875L160.475 97.125L160.288 125.625C160.256 129.688 159.803 133.25 158.928 136.312C158.053 139.344 156.694 141.953 154.85 144.141C153.038 146.328 150.616 147.984 147.584 149.109C144.584 150.203 141.006 150.75 136.85 150.75C128.163 150.75 121.834 148.609 117.866 144.328C113.897 140.047 111.913 132.984 111.913 123.141V88.4531L107.319 82.875ZM180.931 150V149.906L185.572 144.047V88.7344L180.931 82.875V82.7812H209.15C217.4 82.7812 223.65 84.4531 227.9 87.7969C232.181 91.1406 234.322 95.8438 234.322 101.906C234.322 108.844 231.884 113.812 227.009 116.812C222.166 119.812 214.619 121.312 204.369 121.312H203.806C203.806 122.812 204.463 124.016 205.775 124.922C207.088 125.828 208.666 126.281 210.509 126.281H234.041V149.906C226.259 149.906 219.4 147.406 213.463 142.406C208.838 138.562 205.619 133.672 203.806 127.734V144.328L208.4 149.906V150H180.931ZM203.806 119.109H203.9C205.994 119.109 207.838 118.234 209.431 116.484C211.056 114.703 212.244 112.531 212.994 109.969C213.775 107.406 214.166 104.719 214.166 101.906C214.166 99.125 213.775 96.4844 212.994 93.9844C212.244 91.4531 211.056 89.3281 209.431 87.6094C207.838 85.8906 205.994 85.0312 203.9 85.0312H203.806V119.109ZM257.075 150V149.906L261.716 144.328V127.266L241.934 88.1719L239.216 82.875V82.7812H270.622V82.875L264.575 88.1719L279.575 122.812L289.653 101.625L280.231 82.875V82.7812H300.95V82.875L298.466 88.1719L280.137 127.266V144.328L284.731 149.906V150H257.075Z" fill="#ECCB20"/>
</svg>
