<svg width="214" height="47" viewBox="0 0 214 47" fill="none" xmlns="http://www.w3.org/2000/svg">
<path d="M0.6875 46V45.9375L9.25 36.4688V8.375L4.53125 1.25L4.46875 1.1875H19.9375L37.75 26.1562V10.75L29.1562 1.25V1.1875H47.6562V1.25L39.0938 10.75V46H35.5625L10.5938 10.4062V36.4688L19.1875 45.9375V46H0.6875ZM51.3125 46V45.9375L54.4062 42.2188V4.96875L51.3125 1.25V1.1875H85.8125V13.2812H77.6875L70.0625 2.59375H66.5625V22.9688H66.625L77.25 15.2812H77.6875V31.6562H77.25L66.625 23.8438H66.5625V44.5938H70.0625L77.6875 33.9062H85.8125V46H51.3125ZM86.3438 46V45.9375L103.625 27.375L87.0312 1.25V1.1875H107.969V1.25L104.906 4.78125L112.969 17.4062L119.375 10.4688L113.469 1.25V1.1875H130V1.25L113.75 18.6875L129.094 42.875L131.094 45.9375V46H110.406V45.9375L113.469 42.875L104.469 28.6562L98 35.625L104.531 45.9375V46H86.3438ZM135.188 1.25V1.1875H153.469V1.25L150.406 4.96875V28.7188C150.406 31.5104 150.625 33.8958 151.062 35.875C151.5 37.8333 152.146 39.3854 153 40.5312C153.854 41.6562 154.833 42.4792 155.938 43C157.062 43.5 158.375 43.75 159.875 43.75C162.688 43.75 164.927 42.5833 166.594 40.25C168.281 37.8958 169.135 34.3958 169.156 29.75L169.281 10.75L160.844 1.25V1.1875H179.062V1.25L170.625 10.75L170.5 29.75C170.479 32.4583 170.177 34.8333 169.594 36.875C169.01 38.8958 168.104 40.6354 166.875 42.0938C165.667 43.5521 164.052 44.6562 162.031 45.4062C160.031 46.1354 157.646 46.5 154.875 46.5C149.083 46.5 144.865 45.0729 142.219 42.2188C139.573 39.3646 138.25 34.6562 138.25 28.0938V4.96875L135.188 1.25ZM198.594 46.3125C196.281 46.3125 193.24 46.125 189.469 45.75C185.698 45.375 182.677 44.9688 180.406 44.5312V29.5L185.844 29.5625L197.5 44.6562C198.062 44.7812 198.594 44.8438 199.094 44.8438C201.01 44.8438 202.635 44.2188 203.969 42.9688C205.323 41.6979 206 40.1667 206 38.375C206 37.7083 205.896 37.0833 205.688 36.5C205.5 35.9167 205.26 35.4062 204.969 34.9688C204.677 34.5104 204.25 34.0521 203.688 33.5938C203.125 33.1354 202.604 32.7604 202.125 32.4688C201.667 32.1562 201.031 31.8021 200.219 31.4062C199.406 30.9896 198.719 30.6667 198.156 30.4375C197.615 30.1875 196.854 29.8646 195.875 29.4688C194.896 29.0521 194.135 28.7188 193.594 28.4688C192.219 27.8646 191.021 27.2812 190 26.7188C188.979 26.1354 187.906 25.4062 186.781 24.5312C185.677 23.6354 184.771 22.6875 184.062 21.6875C183.354 20.6667 182.771 19.4375 182.312 18C181.854 16.5625 181.625 14.9896 181.625 13.2812C181.625 9.73958 183.083 6.79167 186 4.4375C188.938 2.0625 192.812 0.875 197.625 0.875C199.333 0.875 204.177 1.34375 212.156 2.28125L212.281 14.7812H203.906L194.562 2.46875H194.5C193.104 2.88542 191.99 3.66667 191.156 4.8125C190.344 5.9375 189.938 7.20833 189.938 8.625C189.938 9.52083 190.125 10.3646 190.5 11.1562C190.896 11.9271 191.302 12.5625 191.719 13.0625C192.156 13.5625 192.906 14.1354 193.969 14.7812C195.031 15.4062 195.833 15.8542 196.375 16.125C196.938 16.3958 197.948 16.8542 199.406 17.5C199.615 17.6042 199.771 17.6771 199.875 17.7188C200.688 18.0729 201.344 18.375 201.844 18.625C202.344 18.8542 202.979 19.1667 203.75 19.5625C204.542 19.9375 205.188 20.2917 205.688 20.625C206.208 20.9375 206.812 21.3229 207.5 21.7812C208.188 22.2396 208.75 22.6979 209.188 23.1562C209.646 23.6146 210.125 24.1354 210.625 24.7188C211.146 25.2812 211.562 25.8854 211.875 26.5312C212.208 27.1562 212.51 27.8438 212.781 28.5938C213.073 29.3229 213.281 30.125 213.406 31C213.552 31.8542 213.625 32.7604 213.625 33.7188C213.625 36.1771 212.948 38.375 211.594 40.3125C210.24 42.25 208.417 43.7396 206.125 44.7812C203.854 45.8021 201.344 46.3125 198.594 46.3125Z" fill="white"/>
</svg>
