<svg width="135" height="27" viewBox="0 0 135 27" fill="none" xmlns="http://www.w3.org/2000/svg">
<path d="M0.859222 26V25.9648L5.67563 20.6387V4.83594L3.02133 0.828125L2.98618 0.792969H11.6873L21.7069 14.8379V6.17188L16.8729 0.828125V0.792969H27.2791V0.828125L22.4627 6.17188V26H20.4764L6.43149 5.97852V20.6387L11.2655 25.9648V26H0.859222ZM32.7558 26V25.9648L34.496 23.873V2.91992L32.7558 0.828125V0.792969H52.162V7.5957H47.5917L43.3027 1.58398H41.3339V13.0449H41.3691L47.3456 8.7207H47.5917V17.9316H47.3456L41.3691 13.5371H41.3339V25.209H43.3027L47.5917 19.1973H52.162V26H32.7558ZM55.8809 26V25.9648L65.6016 15.5234L56.2676 0.828125V0.792969H68.0449V0.828125L66.3223 2.81445L70.8574 9.91602L74.4609 6.01367L71.1387 0.828125V0.792969H80.4375V0.828125L71.2969 10.6367L79.9277 24.2422L81.0527 25.9648V26H69.416V25.9648L71.1387 24.2422L66.0762 16.2441L62.4375 20.1641L66.1113 25.9648V26H55.8809ZM86.7755 0.828125V0.792969H97.0587V0.828125L95.336 2.91992V16.2793C95.336 17.8496 95.4591 19.1914 95.7052 20.3047C95.9513 21.4062 96.3145 22.2793 96.795 22.9238C97.2755 23.5566 97.8263 24.0195 98.4473 24.3125C99.0802 24.5938 99.8184 24.7344 100.662 24.7344C102.244 24.7344 103.504 24.0781 104.441 22.7656C105.391 21.4414 105.871 19.4727 105.883 16.8594L105.953 6.17188L101.207 0.828125V0.792969H111.455V0.828125L106.709 6.17188L106.639 16.8594C106.627 18.3828 106.457 19.7188 106.129 20.8672C105.801 22.0039 105.291 22.9824 104.6 23.8027C103.92 24.623 103.012 25.2441 101.875 25.666C100.75 26.0762 99.4083 26.2812 97.8497 26.2812C94.5919 26.2812 92.2188 25.4785 90.7306 23.873C89.2423 22.2676 88.4981 19.6191 88.4981 15.9277V2.91992L86.7755 0.828125ZM125.861 26.1758C124.561 26.1758 122.85 26.0703 120.729 25.8594C118.608 25.6484 116.908 25.4199 115.631 25.1738V16.7188L118.69 16.7539L125.246 25.2441C125.563 25.3145 125.861 25.3496 126.143 25.3496C127.221 25.3496 128.135 24.998 128.885 24.2949C129.647 23.5801 130.028 22.7188 130.028 21.7109C130.028 21.3359 129.969 20.9844 129.852 20.6562C129.746 20.3281 129.611 20.041 129.447 19.7949C129.283 19.5371 129.043 19.2793 128.727 19.0215C128.41 18.7637 128.117 18.5527 127.848 18.3887C127.59 18.2129 127.233 18.0137 126.776 17.791C126.319 17.5566 125.932 17.375 125.615 17.2461C125.311 17.1055 124.883 16.9238 124.332 16.7012C123.781 16.4668 123.354 16.2793 123.049 16.1387C122.276 15.7988 121.602 15.4707 121.028 15.1543C120.453 14.8262 119.85 14.416 119.217 13.9238C118.596 13.4199 118.086 12.8867 117.688 12.3242C117.289 11.75 116.961 11.0586 116.703 10.25C116.445 9.44141 116.317 8.55664 116.317 7.5957C116.317 5.60352 117.137 3.94531 118.778 2.62109C120.43 1.28516 122.61 0.617188 125.317 0.617188C126.278 0.617188 129.002 0.880859 133.49 1.4082L133.561 8.43945H128.85L123.594 1.51367H123.559C122.774 1.74805 122.147 2.1875 121.678 2.83203C121.221 3.46484 120.992 4.17969 120.992 4.97656C120.992 5.48047 121.098 5.95508 121.309 6.40039C121.531 6.83398 121.76 7.19141 121.994 7.47266C122.24 7.75391 122.662 8.07617 123.26 8.43945C123.858 8.79102 124.309 9.04297 124.613 9.19531C124.93 9.34766 125.498 9.60547 126.319 9.96875C126.436 10.0273 126.524 10.0684 126.582 10.0918C127.039 10.291 127.408 10.4609 127.69 10.6016C127.971 10.7305 128.328 10.9062 128.762 11.1289C129.207 11.3398 129.57 11.5391 129.852 11.7266C130.145 11.9023 130.485 12.1191 130.871 12.377C131.258 12.6348 131.574 12.8926 131.82 13.1504C132.078 13.4082 132.348 13.7012 132.629 14.0293C132.922 14.3457 133.156 14.6855 133.332 15.0488C133.52 15.4004 133.69 15.7871 133.842 16.209C134.006 16.6191 134.123 17.0703 134.194 17.5625C134.276 18.043 134.317 18.5527 134.317 19.0918C134.317 20.4746 133.936 21.7109 133.174 22.8008C132.412 23.8906 131.387 24.7285 130.098 25.3145C128.82 25.8887 127.408 26.1758 125.861 26.1758Z" fill="white"/>
</svg>
