<svg width="58" height="37" viewBox="0 0 58 37" fill="none" xmlns="http://www.w3.org/2000/svg">
<path d="M23.4771 18.5C23.4771 23.6566 20.0651 28.0008 15.402 29.378C13.0487 26.3922 11.6422 22.6128 11.6422 18.5C11.6422 14.3872 13.0487 10.6078 15.402 7.62204C20.0651 8.99918 23.4771 13.3434 23.4771 18.5ZM12.2385 7.16667C12.5677 7.16667 12.8937 7.18095 13.2158 7.20895C10.9652 10.3961 9.6422 14.2934 9.6422 18.5C9.6422 22.7066 10.9652 26.6039 13.2158 29.791C12.8937 29.819 12.5677 29.8333 12.2385 29.8333C6.03892 29.8333 1 24.7665 1 18.5C1 12.2335 6.03892 7.16667 12.2385 7.16667ZM25.4771 18.5C25.4771 12.7754 21.8924 7.88628 16.8533 5.99884C19.985 2.90589 24.2733 1 29 1C33.7267 1 38.015 2.90589 41.1467 5.99884C36.1077 7.88628 32.5229 12.7754 32.5229 18.5C32.5229 24.2246 36.1077 29.1137 41.1467 31.0012C38.015 34.0941 33.7267 36 29 36C24.2733 36 19.985 34.0941 16.8533 31.0012C21.8924 29.1137 25.4771 24.2246 25.4771 18.5ZM34.5229 18.5C34.5229 13.3434 37.9349 8.99918 42.598 7.62204C44.9513 10.6078 46.3578 14.3872 46.3578 18.5C46.3578 22.6128 44.9513 26.3922 42.598 29.378C37.935 28.0008 34.5229 23.6566 34.5229 18.5ZM44.7842 29.791C47.0348 26.6039 48.3578 22.7066 48.3578 18.5C48.3578 14.2934 47.0348 10.3961 44.7842 7.20895C45.1063 7.18096 45.4323 7.16667 45.7615 7.16667C51.9611 7.16667 57 12.2335 57 18.5C57 24.7665 51.9611 29.8333 45.7615 29.8333C45.4323 29.8333 45.1063 29.819 44.7842 29.791Z" stroke="#494949" stroke-width="2"/>
</svg>
